<?xml version="1.0" encoding="UTF-8"?>
<svg width="24px" height="24px" viewBox="0 0 24 24" version="1.1" xmlns="http://www.w3.org/2000/svg" xmlns:xlink="http://www.w3.org/1999/xlink">
    <title>京东白条</title>
    <defs>
        <linearGradient x1="26.1470435%" y1="54.5559933%" x2="50%" y2="81.7596913%" id="linearGradient-1">
            <stop stop-color="#DCD9D8" offset="0%"></stop>
            <stop stop-color="#D8D6D7" offset="23.3365983%"></stop>
            <stop stop-color="#FFF5F5" offset="100%"></stop>
        </linearGradient>
    </defs>
    <g id="京东白条" stroke="none" stroke-width="1" fill="none" fill-rule="evenodd">
        <g>
            <rect id="矩形" fill="#D8D8D8" opacity="0" x="0" y="0" width="24" height="24"></rect>
            <g transform="translate(1.500000, 0.000000)" fill-rule="nonzero">
                <path d="M12.4506807,1.77635684e-15 L19.9300112,1.77635684e-15 C20.5209497,1.77635684e-15 21,0.463257437 21,1.03471444 L21,22.9652855 C21,23.5367426 20.5209497,24 19.9300112,24 L1.0699888,24 C0.479050305,24 0,23.5367426 0,22.9652855 L0,9.11780317 C0,8.4251276 0.358368772,7.7783858 0.954766726,7.3947525 L12.4506807,1.77635684e-15 Z" id="矩形" fill="#CF362A"></path>
                <path d="M9.13902242,18.251243 L9.13902242,12.6720627 L5.87437215,12.6720627 L6.25595465,11.9850123 L5.03489067,11.9850123 L4.85681884,12.6720627 L2.72843645,12.6720627 L2.72843645,18.251243 L9.13902242,18.251243 Z M8.11298949,14.9649899 L3.7544694,14.9649899 L3.7544694,13.3260022 L8.11298949,13.3260022 L8.11298949,14.9649899 Z M8.11298949,17.5973034 L3.7544694,17.5973034 L3.7544694,15.5940963 L8.11298949,15.5940963 L8.11298949,17.5973034 Z M18.2715636,14.526271 C17.237051,14.4490123 16.3269061,14.3220873 15.5411288,14.1454961 C16.3608245,13.8143874 17.0194076,13.4308533 17.5168782,12.9948936 L17.5168782,12.3657872 L12.9887659,12.3657872 C13.1922765,12.1560851 13.3109911,12.0291601 13.3449095,11.9850123 L12.1238455,11.9850123 C11.7111711,12.5865263 11.2137006,13.1632071 10.631434,13.7150548 L11.4963543,13.7150548 C11.6376811,13.6046853 11.7761815,13.4915565 11.9118553,13.3756685 C12.3019173,13.6571108 12.7654694,13.9109608 13.3025115,14.1372183 C12.4545504,14.3358835 11.5415789,14.4655677 10.5635971,14.526271 L10.5635971,15.1470996 C11.852498,15.058804 12.9831128,14.8932497 13.9554415,14.6504367 C14.0628499,14.6283628 14.2183095,14.5897335 14.4218201,14.5345487 C14.7836169,14.6283628 15.0125664,14.6863068 15.1086686,14.7083807 C15.9679359,14.9070459 17.0222342,15.0532855 18.2715636,15.1470996 L18.2715636,14.526271 Z M14.4133405,13.8226651 C13.9441354,13.6571108 13.537114,13.4556864 13.1922765,13.2183919 L12.0984067,13.2183919 C12.1888559,13.1466517 12.2764785,13.0721523 12.3612746,12.9948936 L16.1007831,12.9948936 C15.6372311,13.3149653 15.0747502,13.5908891 14.4133405,13.8226651 Z M13.1753173,18.3754087 C13.7462778,18.3754087 14.1730849,18.2705576 14.4557386,18.0608555 C14.7836169,17.8180425 14.947556,17.4151937 14.947556,16.852309 L14.947556,16.0576483 L18.0086956,16.0576483 L18.0086956,15.4368197 L14.947556,15.4368197 L14.947556,14.9236013 L13.8706454,14.9236013 L13.8706454,15.4368197 L10.8179854,15.4368197 L10.8179854,16.0576483 L13.8706454,16.0576483 L13.8706454,17.0013079 C13.8706454,17.2441209 13.8169412,17.4179529 13.7095328,17.522804 C13.6077775,17.6221366 13.4297056,17.6773214 13.1753173,17.6883583 L13.1753173,18.3754087 Z M11.4793951,18.2098544 L12.8361329,16.4301455 L11.6659465,16.4301455 L10.7331893,18.2098544 L11.4793951,18.2098544 Z M18.0934917,18.2098544 L17.1522549,16.4301455 L15.9905482,16.4301455 L17.3472859,18.2098544 L18.0934917,18.2098544 Z" id="白条" fill="#FFFFFF"></path>
                <path d="M12.3338826,0 L6.83832629,9.31251615 C5.55809279,7.43732 3.90904469,6.58820585 1.89118199,6.76517373 C1.89118199,6.76517373 5.37208219,4.51011583 12.3338826,0 Z" id="路径-42" fill="url(#linearGradient-1)"></path>
            </g>
        </g>
    </g>
</svg>