<?xml version="1.0" encoding="UTF-8"?>
<svg width="50px" height="32px" viewBox="0 0 50 32" version="1.1" xmlns="http://www.w3.org/2000/svg" xmlns:xlink="http://www.w3.org/1999/xlink">
    <title>logo</title>
    <defs>
        <path d="M2.60787747,1.05313253 C1.75456348,1.05313253 0.925685295,0.933204378 0.135594113,0.708392822 L0.135594113,0.708392822 C0.0362993939,1.00412963 -0.0110207456,1.31620074 0.00216683423,1.63686885 L0.00216683423,1.63686885 C0.0712076936,3.30769585 1.74835756,4.58091159 3.748991,4.47946699 L3.748991,4.47946699 C5.74962444,4.37673283 7.31623135,2.93845469 7.24719049,1.26848739 L7.24719049,1.26848739 C7.22857273,0.808118025 7.08389723,0.379557562 6.8476844,0 L6.8476844,0 C5.56189536,0.67443467 4.12483702,1.05313253 2.60787747,1.05313253" id="path-1"></path>
        <linearGradient x1="-31.4316335%" y1="67.4749811%" x2="399.363834%" y2="-32.7423394%" id="linearGradient-3">
            <stop stop-color="#008CD6" offset="0%"></stop>
            <stop stop-color="#003893" offset="100%"></stop>
        </linearGradient>
        <path d="M1.35027242,0.649546355 C0.823819711,0.924607378 0.370900684,1.26117994 0,1.62831483 L0,1.62831483 C0.205651904,2.40591351 0.315548403,3.21949063 0.315548403,4.05821397 L0.315548403,4.05821397 C0.315548403,4.54450329 0.277165435,5.02189472 0.206459967,5.48961452 L0.206459967,5.48961452 C1.17734705,5.84204854 2.55347748,5.70355087 3.84233715,5.03001888 L3.84233715,5.03001888 C5.74976866,4.03152029 6.73802909,2.24226961 6.04996388,1.03292958 L6.04996388,1.03292958 C5.66249791,0.352047161 4.8269613,0 3.83102428,0 L3.83102428,0 C3.05649638,0 2.18459695,0.212775756 1.35027242,0.649546355" id="path-4"></path>
        <linearGradient x1="-282.895818%" y1="145.428328%" x2="236.067779%" y2="-7.26142255%" id="linearGradient-6">
            <stop stop-color="#008CD6" offset="0%"></stop>
            <stop stop-color="#003893" offset="100%"></stop>
        </linearGradient>
        <path d="M3.68465301,0.00533404789 C1.57872307,0.102988155 -0.0707451212,1.47630033 0.00233775182,3.06994972 L0.00233775182,3.06994972 C0.0227519622,3.50980351 0.174225403,3.91888395 0.423278769,4.2811889 L0.423278769,4.2811889 C1.77633263,3.63741035 3.28861733,3.27592603 4.88460029,3.27592603 L4.88460029,3.27592603 C5.78364212,3.27592603 6.65573718,3.38999259 7.48863696,3.60499575 L7.48863696,3.60499575 C7.59234115,3.32270152 7.64337668,3.02481546 7.62867845,2.71872318 L7.62867845,2.71872318 C7.55886185,1.18374832 5.92041733,0 3.91941643,0 L3.91941643,0 C3.84143415,0 3.76345186,0.0016412455 3.68465301,0.00533404789" id="path-7"></path>
        <radialGradient cx="164.812581%" cy="171.176286%" fx="164.812581%" fy="171.176286%" r="831.78579%" gradientTransform="translate(1.648126,1.711763),scale(0.561014,1.000000),rotate(158.049010),scale(1.000000,1.001603),translate(-1.648126,-1.711763)" id="radialGradient-9">
            <stop stop-color="#F9BD00" offset="0%"></stop>
            <stop stop-color="#E40011" offset="100%"></stop>
        </radialGradient>
        <path d="M2.51234495,0.674595864 C0.537174031,1.71429558 -0.485966177,3.57850136 0.226801981,4.83823055 L0.226801981,4.83823055 C0.938733557,6.09836273 3.11719398,6.2772878 5.09278319,5.23799107 L5.09278319,5.23799107 C5.63698001,4.95106618 6.1063027,4.60006678 6.48987571,4.2176346 L6.48987571,4.2176346 C6.27738379,3.40763598 6.16402688,2.56015981 6.16402688,1.68689264 L6.16402688,1.68689264 C6.16402688,1.18034127 6.20292796,0.683058536 6.27654721,0.195850412 L6.27654721,0.195850412 C5.921418,0.0660894395 5.5140024,0 5.07646983,0 L5.07646983,0 C4.27586053,0 3.37486135,0.220835444 2.51234495,0.674595864" id="path-10"></path>
        <radialGradient cx="381.213785%" cy="-78.4282626%" fx="381.213785%" fy="-78.4282626%" r="613.366897%" gradientTransform="translate(3.812138,-0.784283),scale(0.911268,1.000000),rotate(158.875222),scale(1.000000,1.001603),translate(-3.812138,0.784283)" id="radialGradient-12">
            <stop stop-color="#F9BD00" offset="0%"></stop>
            <stop stop-color="#E40011" offset="100%"></stop>
        </radialGradient>
        <path d="M2.69692674,0.633353291 C0.742449824,1.62151706 -0.405645365,3.4125639 0.13271819,4.63367568 L0.13271819,4.63367568 C0.671469615,5.85395846 2.69266017,6.04296965 4.64752495,5.05604937 L4.64752495,5.05604937 C6.26571857,4.23741537 7.33042171,2.86915673 7.34399716,1.7292866 L7.34399716,1.7292866 L7.34399716,1.68659329 C7.34166994,1.46525123 7.29861637,1.25261364 7.21173349,1.05531249 L7.21173349,1.05531249 C6.90454045,0.360613457 6.11871584,0 5.13818049,0 L5.13818049,0 C4.39463371,0.000414498227 3.53938037,0.207663612 2.69692674,0.633353291" id="path-13"></path>
        <linearGradient x1="-331.988805%" y1="157.280319%" x2="93.300064%" y2="37.8417465%" id="linearGradient-15">
            <stop stop-color="#008CD6" offset="0%"></stop>
            <stop stop-color="#003893" offset="100%"></stop>
        </linearGradient>
        <path d="M3.0253876,0.234606209 C1.02203907,0.844333101 -0.304864186,2.45631671 0.0605093504,3.83327981 L0.0605093504,3.83327981 C0.330854738,4.84921497 1.44792033,5.45396788 2.8198165,5.45562587 L2.8198165,5.45562587 L2.83416769,5.45562587 C3.31706584,5.45479688 3.83138145,5.3793582 4.35073938,5.22101988 L4.35073938,5.22101988 C6.35486365,4.61087849 7.68293052,2.99972388 7.3160055,1.62234627 L7.3160055,1.62234627 C7.04527224,0.604753126 5.92510369,-0.000414285438 4.55010456,0 L4.55010456,0 C4.06487919,0 3.54784849,0.0754388901 3.0253876,0.234606209" id="path-16"></path>
        <linearGradient x1="-104.590336%" y1="91.4505718%" x2="318.762717%" y2="-22.0700288%" id="linearGradient-18">
            <stop stop-color="#008CD6" offset="0%"></stop>
            <stop stop-color="#003893" offset="100%"></stop>
        </linearGradient>
        <path d="M2.54446293,0.858453461 C0.58918986,1.96295307 -0.462141972,3.708488 0.196420453,4.75689218 L0.196420453,4.75689218 C0.853758026,5.80529637 2.97111992,5.76119375 4.92557642,4.65669415 L4.92557642,4.65669415 C6.88207434,3.55219454 7.93340617,1.80588587 7.27525203,0.757868558 L7.27525203,0.757868558 C6.95679035,0.251462258 6.29781964,0 5.48165951,0 L5.48165951,0 C4.60833959,0 3.55455805,0.287827569 2.54446293,0.858453461" id="path-19"></path>
        <linearGradient x1="-282.884329%" y1="128.994083%" x2="157.162018%" y2="24.5688796%" id="linearGradient-21">
            <stop stop-color="#008CD6" offset="0%"></stop>
            <stop stop-color="#003893" offset="100%"></stop>
        </linearGradient>
        <path d="M2.43809517,0.605685534 C0.561192257,1.5978331 -0.445330383,3.45760604 0.190776411,4.76045457 L0.190776411,4.76045457 C0.824943854,6.06209414 2.86203707,6.31436236 4.73893999,5.32261779 L4.73893999,5.32261779 C6.61778225,4.33127619 7.62430489,2.47110026 6.9881981,1.16865472 L6.9881981,1.16865472 C6.61506716,0.402581403 5.75632299,0 4.73040685,0 L4.73040685,0 C4.01168374,0 3.21112007,0.19746235 2.43809517,0.605685534" id="path-22"></path>
        <linearGradient x1="-189.236784%" y1="119.640443%" x2="245.81053%" y2="-7.00557801%" id="linearGradient-24">
            <stop stop-color="#008CD6" offset="0%"></stop>
            <stop stop-color="#003893" offset="100%"></stop>
        </linearGradient>
        <path d="M0.510370332,0.35796392 C-0.405164471,1.1781936 -0.0552734121,3.14574354 1.29015064,4.75199189 L1.29015064,4.75199189 C2.63719081,6.35782304 4.46987654,6.99615031 5.38460329,6.17592063 L5.38460329,6.17592063 C6.29973406,5.35527374 5.95065106,3.38814102 4.60482298,1.78189266 L4.60482298,1.78189266 C3.65736971,0.65084349 2.46830575,0 1.52772101,0 L1.52772101,0 C1.13257845,0 0.781071267,0.115149233 0.510370332,0.35796392" id="path-25"></path>
        <linearGradient x1="22.5054691%" y1="60.6772866%" x2="471.616357%" y2="-113.718572%" id="linearGradient-27">
            <stop stop-color="#008CD6" offset="0%"></stop>
            <stop stop-color="#003893" offset="100%"></stop>
        </linearGradient>
        <path d="M1.87020142,0.722255484 C0.112129622,1.85745355 -0.518669477,3.92886494 0.462845756,5.34815804 L0.462845756,5.34815804 C1.44354442,6.76705711 3.66420222,6.99598807 5.4226823,5.86079 L5.4226823,5.86079 C7.18075409,4.72480388 7.81155319,2.65378652 6.82962967,1.23449342 L6.82962967,1.23449342 C6.26864717,0.422793309 5.30142189,0 4.24764035,0 L4.24764035,0 C3.45924355,0 2.62307749,0.236023478 1.87020142,0.722255484" id="path-28"></path>
        <linearGradient x1="-115.564946%" y1="98.9337534%" x2="335.252441%" y2="-34.3032172%" id="linearGradient-30">
            <stop stop-color="#008CD6" offset="0%"></stop>
            <stop stop-color="#003893" offset="100%"></stop>
        </linearGradient>
        <path d="M2.69692674,0.590742873 C0.742449824,1.5126422 -0.405645365,3.18428591 0.13271819,4.32399024 L0.13271819,4.32399024 C0.672245355,5.46408143 2.69343591,5.64049187 4.64752495,4.71820568 L4.64752495,4.71820568 C6.60200186,3.79553263 7.74970918,2.12466264 7.21173349,0.984571455 L7.21173349,0.984571455 C6.90531619,0.33657256 6.11910371,0 5.13818049,0 L5.13818049,0 C4.39502158,0.000386865012 3.53976824,0.193432506 2.69692674,0.590742873" id="path-31"></path>
        <radialGradient cx="426.700255%" cy="-157.539224%" fx="426.700255%" fy="-157.539224%" r="636.524599%" gradientTransform="translate(4.267003,-1.575392),scale(0.722905,1.000000),rotate(158.198528),scale(1.000000,1.001603),translate(-4.267003,1.575392)" id="radialGradient-33">
            <stop stop-color="#F9BD00" offset="0%"></stop>
            <stop stop-color="#E40011" offset="100%"></stop>
        </radialGradient>
        <path d="M4.54283707,0 C4.05993892,0.000828996454 3.54562331,0.0762676737 3.02587751,0.234605996 L3.02587751,0.234605996 C1.02214111,0.844747386 -0.305150014,2.45590199 0.0606113927,3.8328651 L0.0606113927,3.8328651 C0.426372799,5.20982821 2.3486565,5.83157555 4.35122929,5.22101967 L4.35122929,5.22101967 C6.35496569,4.61087828 7.68264469,2.99930917 7.31649541,1.62234606 L7.31649541,1.62234606 C7.04576216,0.605996408 5.92869657,0.00165799291 4.55680039,0 L4.55680039,0 L4.54283707,0 Z" id="path-34"></path>
        <radialGradient cx="254.320924%" cy="178.660426%" fx="254.320924%" fy="178.660426%" r="625.754908%" gradientTransform="translate(2.543209,1.786604),scale(0.739538,1.000000),rotate(156.801345),scale(1.000000,1.001603),translate(-2.543209,-1.786604)" id="radialGradient-36">
            <stop stop-color="#F9BD00" offset="0%"></stop>
            <stop stop-color="#E40011" offset="100%"></stop>
        </radialGradient>
        <path d="M2.41921039,0.858453461 C0.559761625,1.9625662 -0.438615745,3.70926173 0.186242819,4.75727905 L0.186242819,4.75727905 C0.812264993,5.80568323 2.82337092,5.76080689 4.68126821,4.65669415 L4.68126821,4.65669415 C6.53800188,3.5525814 7.53715499,1.8066596 6.91113281,0.757868558 L6.91113281,0.757868558 C6.60898209,0.251462258 5.98334778,0 5.20799566,0 L5.20799566,0 C4.37872961,0 3.37841289,0.287440704 2.41921039,0.858453461" id="path-37"></path>
        <radialGradient cx="400.193314%" cy="-36.3503705%" fx="400.193314%" fy="-36.3503705%" r="612.772205%" gradientTransform="translate(4.001933,-0.363504),scale(0.777006,1.000000),rotate(158.198529),scale(1.000000,1.001603),translate(-4.001933,0.363504)" id="radialGradient-39">
            <stop stop-color="#F9BD00" offset="0%"></stop>
            <stop stop-color="#E40011" offset="100%"></stop>
        </radialGradient>
        <path d="M2.56791765,0.581458113 C0.590188954,1.53353291 -0.468491994,3.3193018 0.200685821,4.56926265 L0.200685821,4.56926265 C0.868230498,5.81961037 3.01417229,6.06178787 4.99026785,5.11048681 L4.99026785,5.11048681 C6.96554684,4.15802515 8.02504436,2.37225625 7.35627483,1.12152167 L7.35627483,1.12152167 C6.96309713,0.386478147 6.05956419,0 4.97965246,0 L4.97965246,0 C4.22391839,0 3.38162807,0.189563856 2.56791765,0.581458113" id="path-40"></path>
        <radialGradient cx="323.179179%" cy="67.135346%" fx="323.179179%" fy="67.135346%" r="620.79546%" gradientTransform="translate(3.231792,0.671353),scale(0.753173,1.000000),rotate(159.193149),scale(1.000000,1.001603),translate(-3.231792,-0.671353)" id="radialGradient-42">
            <stop stop-color="#F9BD00" offset="0%"></stop>
            <stop stop-color="#E40011" offset="100%"></stop>
        </radialGradient>
        <path d="M0.489594204,0.345760604 C-0.388543468,1.13843089 -0.0534237908,3.03850228 1.23857117,4.58999217 L1.23857117,4.58999217 C2.53056612,6.14148206 4.2903323,6.75764519 5.16924571,5.96537788 L5.16924571,5.96537788 C6.04777125,5.17270759 5.71148796,3.27303919 4.42065662,1.7215493 L4.42065662,1.7215493 C3.50993786,0.629058628 2.36843647,0 1.46586298,0 L1.46586298,0 C1.08652613,0 0.749467102,0.111223691 0.489594204,0.345760604" id="path-43"></path>
        <radialGradient cx="88.1794974%" cy="44.9836199%" fx="88.1794974%" fy="44.9836199%" r="600.680143%" gradientTransform="translate(0.881795,0.449836),scale(1.000000,0.896664),rotate(157.380072),scale(1.000000,1.001602),translate(-0.881795,-0.449836)" id="radialGradient-45">
            <stop stop-color="#F9BD00" offset="0%"></stop>
            <stop stop-color="#E40011" offset="100%"></stop>
        </radialGradient>
        <path d="M1.87020142,0.764323894 C0.112129622,1.96713273 -0.518669477,4.16039185 0.462845756,5.66275557 L0.462845756,5.66275557 C1.44354442,7.1655365 3.66297737,7.40835119 5.42227401,6.20512515 L5.42227401,6.20512515 C7.18116238,5.00273352 7.81114491,2.80989161 6.83003796,1.30711068 L6.83003796,1.30711068 C6.26864717,0.447246296 5.3010136,0 4.24682378,0 L4.24682378,0 C3.45883526,0 2.62226092,0.249907212 1.87020142,0.764323894" id="path-46"></path>
        <radialGradient cx="223.095859%" cy="3.57617206%" fx="223.095859%" fy="3.57617206%" r="484.956557%" gradientTransform="translate(2.230959,0.035762),scale(0.955738,1.000000),rotate(157.066910),scale(1.000000,1.001603),translate(-2.230959,-0.035762)" id="radialGradient-48">
            <stop stop-color="#F9BD00" offset="0%"></stop>
            <stop stop-color="#E40011" offset="100%"></stop>
        </radialGradient>
    </defs>
    <g id="京东白条" stroke="none" stroke-width="1" fill="none" fill-rule="evenodd">
        <g id="商品列表-PC端" transform="translate(-360.000000, -24.000000)">
            <g id="logo" transform="translate(360.000000, 24.000000)">
                <g id="分组" transform="translate(22.715187, 25.299068)">
                    <mask id="mask-2" fill="white">
                        <use xlink:href="#path-1"></use>
                    </mask>
                    <g id="Clip-2"></g>
                    <path d="M2.60787747,1.05313253 C1.75456348,1.05313253 0.925685295,0.933204378 0.135594113,0.708392822 L0.135594113,0.708392822 C0.0362993939,1.00412963 -0.0110207456,1.31620074 0.00216683423,1.63686885 L0.00216683423,1.63686885 C0.0712076936,3.30769585 1.74835756,4.58091159 3.748991,4.47946699 L3.748991,4.47946699 C5.74962444,4.37673283 7.31623135,2.93845469 7.24719049,1.26848739 L7.24719049,1.26848739 C7.22857273,0.808118025 7.08389723,0.379557562 6.8476844,0 L6.8476844,0 C5.56189536,0.67443467 4.12483702,1.05313253 2.60787747,1.05313253" id="Fill-1" fill="url(#linearGradient-3)" mask="url(#mask-2)"></path>
                </g>
                <g id="分组" transform="translate(34.811156, 12.127260)">
                    <mask id="mask-5" fill="white">
                        <use xlink:href="#path-4"></use>
                    </mask>
                    <g id="Clip-4"></g>
                    <path d="M1.35027242,0.649546355 C0.823819711,0.924607378 0.370900684,1.26117994 0,1.62831483 L0,1.62831483 C0.205651904,2.40591351 0.315548403,3.21949063 0.315548403,4.05821397 L0.315548403,4.05821397 C0.315548403,4.54450329 0.277165435,5.02189472 0.206459967,5.48961452 L0.206459967,5.48961452 C1.17734705,5.84204854 2.55347748,5.70355087 3.84233715,5.03001888 L3.84233715,5.03001888 C5.74976866,4.03152029 6.73802909,2.24226961 6.04996388,1.03292958 L6.04996388,1.03292958 C5.66249791,0.352047161 4.8269613,0 3.83102428,0 L3.83102428,0 C3.05649638,0 2.18459695,0.212775756 1.35027242,0.649546355" id="Fill-3" fill="url(#linearGradient-6)" mask="url(#mask-5)"></path>
                </g>
                <g id="分组" transform="translate(20.041864, 2.435131)">
                    <mask id="mask-8" fill="white">
                        <use xlink:href="#path-7"></use>
                    </mask>
                    <g id="Clip-6"></g>
                    <path d="M3.68465301,0.00533404789 C1.57872307,0.102988155 -0.0707451212,1.47630033 0.00233775182,3.06994972 L0.00233775182,3.06994972 C0.0227519622,3.50980351 0.174225403,3.91888395 0.423278769,4.2811889 L0.423278769,4.2811889 C1.77633263,3.63741035 3.28861733,3.27592603 4.88460029,3.27592603 L4.88460029,3.27592603 C5.78364212,3.27592603 6.65573718,3.38999259 7.48863696,3.60499575 L7.48863696,3.60499575 C7.59234115,3.32270152 7.64337668,3.02481546 7.62867845,2.71872318 L7.62867845,2.71872318 C7.55886185,1.18374832 5.92041733,0 3.91941643,0 L3.91941643,0 C3.84143415,0 3.76345186,0.0016412455 3.68465301,0.00533404789" id="Fill-5" fill="url(#radialGradient-9)" mask="url(#mask-8)"></path>
                </g>
                <g id="分组" transform="translate(8.683133, 14.188896)">
                    <mask id="mask-11" fill="white">
                        <use xlink:href="#path-10"></use>
                    </mask>
                    <g id="Clip-8"></g>
                    <path d="M2.51234495,0.674595864 C0.537174031,1.71429558 -0.485966177,3.57850136 0.226801981,4.83823055 L0.226801981,4.83823055 C0.938733557,6.09836273 3.11719398,6.2772878 5.09278319,5.23799107 L5.09278319,5.23799107 C5.63698001,4.95106618 6.1063027,4.60006678 6.48987571,4.2176346 L6.48987571,4.2176346 C6.27738379,3.40763598 6.16402688,2.56015981 6.16402688,1.68689264 L6.16402688,1.68689264 C6.16402688,1.18034127 6.20292796,0.683058536 6.27654721,0.195850412 L6.27654721,0.195850412 C5.921418,0.0660894395 5.5140024,0 5.07646983,0 L5.07646983,0 C4.27586053,0 3.37486135,0.220835444 2.51234495,0.674595864" id="Fill-7" fill="url(#radialGradient-12)" mask="url(#mask-11)"></path>
                </g>
                <g id="分组" transform="translate(42.656003, 8.201354)">
                    <mask id="mask-14" fill="white">
                        <use xlink:href="#path-13"></use>
                    </mask>
                    <g id="Clip-10"></g>
                    <path d="M2.69692674,0.633353291 C0.742449824,1.62151706 -0.405645365,3.4125639 0.13271819,4.63367568 L0.13271819,4.63367568 C0.671469615,5.85395846 2.69266017,6.04296965 4.64752495,5.05604937 L4.64752495,5.05604937 C6.26571857,4.23741537 7.33042171,2.86915673 7.34399716,1.7292866 L7.34399716,1.7292866 L7.34399716,1.68659329 C7.34166994,1.46525123 7.29861637,1.25261364 7.21173349,1.05531249 L7.21173349,1.05531249 C6.90454045,0.360613457 6.11871584,0 5.13818049,0 L5.13818049,0 C4.39463371,0.000414498227 3.53938037,0.207663612 2.69692674,0.633353291" id="Fill-9" fill="url(#linearGradient-15)" mask="url(#mask-14)"></path>
                </g>
                <g id="分组" transform="translate(29.271062, 26.544374)">
                    <mask id="mask-17" fill="white">
                        <use xlink:href="#path-16"></use>
                    </mask>
                    <g id="Clip-12"></g>
                    <path d="M3.0253876,0.234606209 C1.02203907,0.844333101 -0.304864186,2.45631671 0.0605093504,3.83327981 L0.0605093504,3.83327981 C0.330854738,4.84921497 1.44792033,5.45396788 2.8198165,5.45562587 L2.8198165,5.45562587 L2.83416769,5.45562587 C3.31706584,5.45479688 3.83138145,5.3793582 4.35073938,5.22101988 L4.35073938,5.22101988 C6.35486365,4.61087849 7.68293052,2.99972388 7.3160055,1.62234627 L7.3160055,1.62234627 C7.04527224,0.604753126 5.92510369,-0.000414285438 4.55010456,0 L4.55010456,0 C4.06487919,0 3.54784849,0.0754388901 3.0253876,0.234606209" id="Fill-11" fill="url(#linearGradient-18)" mask="url(#mask-17)"></path>
                </g>
                <g id="分组" transform="translate(39.459304, 14.608870)">
                    <mask id="mask-20" fill="white">
                        <use xlink:href="#path-19"></use>
                    </mask>
                    <g id="Clip-14"></g>
                    <path d="M2.54446293,0.858453461 C0.58918986,1.96295307 -0.462141972,3.708488 0.196420453,4.75689218 L0.196420453,4.75689218 C0.853758026,5.80529637 2.97111992,5.76119375 4.92557642,4.65669415 L4.92557642,4.65669415 C6.88207434,3.55219454 7.93340617,1.80588587 7.27525203,0.757868558 L7.27525203,0.757868558 C6.95679035,0.251462258 6.29781964,0 5.48165951,0 L5.48165951,0 C4.60833959,0 3.55455805,0.287827569 2.54446293,0.858453461" id="Fill-13" fill="url(#linearGradient-21)" mask="url(#mask-20)"></path>
                </g>
                <g id="分组" transform="translate(34.426429, 20.655587)">
                    <mask id="mask-23" fill="white">
                        <use xlink:href="#path-22"></use>
                    </mask>
                    <g id="Clip-16"></g>
                    <path d="M2.43809517,0.605685534 C0.561192257,1.5978331 -0.445330383,3.45760604 0.190776411,4.76045457 L0.190776411,4.76045457 C0.824943854,6.06209414 2.86203707,6.31436236 4.73893999,5.32261779 L4.73893999,5.32261779 C6.61778225,4.33127619 7.62430489,2.47110026 6.9881981,1.16865472 L6.9881981,1.16865472 C6.61506716,0.402581403 5.75632299,0 4.73040685,0 L4.73040685,0 C4.01168374,0 3.21112007,0.19746235 2.43809517,0.605685534" id="Fill-15" fill="url(#linearGradient-24)" mask="url(#mask-23)"></path>
                </g>
                <g id="分组" transform="translate(16.970674, 18.821861)">
                    <mask id="mask-26" fill="white">
                        <use xlink:href="#path-25"></use>
                    </mask>
                    <g id="Clip-18"></g>
                    <path d="M0.510370332,0.35796392 C-0.405164471,1.1781936 -0.0552734121,3.14574354 1.29015064,4.75199189 L1.29015064,4.75199189 C2.63719081,6.35782304 4.46987654,6.99615031 5.38460329,6.17592063 L5.38460329,6.17592063 C6.29973406,5.35527374 5.95065106,3.38814102 4.60482298,1.78189266 L4.60482298,1.78189266 C3.65736971,0.65084349 2.46830575,0 1.52772101,0 L1.52772101,0 C1.13257845,0 0.781071267,0.115149233 0.510370332,0.35796392" id="Fill-17" fill="url(#linearGradient-27)" mask="url(#mask-26)"></path>
                </g>
                <g id="分组" transform="translate(26.114719, 16.752360)">
                    <mask id="mask-29" fill="white">
                        <use xlink:href="#path-28"></use>
                    </mask>
                    <g id="Clip-20"></g>
                    <path d="M1.87020142,0.722255484 C0.112129622,1.85745355 -0.518669477,3.92886494 0.462845756,5.34815804 L0.462845756,5.34815804 C1.44354442,6.76705711 3.66420222,6.99598807 5.4226823,5.86079 L5.4226823,5.86079 C7.18075409,4.72480388 7.81155319,2.65378652 6.82962967,1.23449342 L6.82962967,1.23449342 C6.26864717,0.422793309 5.30142189,0 4.24764035,0 L4.24764035,0 C3.45924355,0 2.62307749,0.236023478 1.87020142,0.722255484" id="Fill-19" fill="url(#linearGradient-30)" mask="url(#mask-29)"></path>
                </g>
                <g id="分组" transform="translate(0.000000, 18.735172)">
                    <mask id="mask-32" fill="white">
                        <use xlink:href="#path-31"></use>
                    </mask>
                    <g id="Clip-22"></g>
                    <path d="M2.69692674,0.590742873 C0.742449824,1.5126422 -0.405645365,3.18428591 0.13271819,4.32399024 L0.13271819,4.32399024 C0.672245355,5.46408143 2.69343591,5.64049187 4.64752495,4.71820568 L4.64752495,4.71820568 C6.60200186,3.79553263 7.74970918,2.12466264 7.21173349,0.984571455 L7.21173349,0.984571455 C6.90531619,0.33657256 6.11910371,0 5.13818049,0 L5.13818049,0 C4.39502158,0.000386865012 3.53976824,0.193432506 2.69692674,0.590742873" id="Fill-21" fill="url(#radialGradient-33)" mask="url(#mask-32)"></path>
                </g>
                <g id="分组" transform="translate(13.094195, 0.000000)">
                    <mask id="mask-35" fill="white">
                        <use xlink:href="#path-34"></use>
                    </mask>
                    <g id="Clip-24"></g>
                    <path d="M4.54283707,0 C4.05993892,0.000828996454 3.54562331,0.0762676737 3.02587751,0.234605996 L3.02587751,0.234605996 C1.02214111,0.844747386 -0.305150014,2.45590199 0.0606113927,3.8328651 L0.0606113927,3.8328651 C0.426372799,5.20982821 2.3486565,5.83157555 4.35122929,5.22101967 L4.35122929,5.22101967 C6.35496569,4.61087828 7.68264469,2.99930917 7.31649541,1.62234606 L7.31649541,1.62234606 C7.04576216,0.605996408 5.92869657,0.00165799291 4.55680039,0 L4.55680039,0 L4.54283707,0 Z" id="Fill-23" fill="url(#radialGradient-36)" mask="url(#mask-35)"></path>
                </g>
                <g id="分组" transform="translate(3.450234, 12.117975)">
                    <mask id="mask-38" fill="white">
                        <use xlink:href="#path-37"></use>
                    </mask>
                    <g id="Clip-26"></g>
                    <path d="M2.41921039,0.858453461 C0.559761625,1.9625662 -0.438615745,3.70926173 0.186242819,4.75727905 L0.186242819,4.75727905 C0.812264993,5.80568323 2.82337092,5.76080689 4.68126821,4.65669415 L4.68126821,4.65669415 C6.53800188,3.5525814 7.53715499,1.8066596 6.91113281,0.757868558 L6.91113281,0.757868558 C6.60898209,0.251462258 5.98334778,0 5.20799566,0 L5.20799566,0 C4.37872961,0 3.37841289,0.287440704 2.41921039,0.858453461" id="Fill-25" fill="url(#radialGradient-39)" mask="url(#mask-38)"></path>
                </g>
                <g id="分组" transform="translate(8.400942, 5.647400)">
                    <mask id="mask-41" fill="white">
                        <use xlink:href="#path-40"></use>
                    </mask>
                    <g id="Clip-28"></g>
                    <path d="M2.56791765,0.581458113 C0.590188954,1.53353291 -0.468491994,3.3193018 0.200685821,4.56926265 L0.200685821,4.56926265 C0.868230498,5.81961037 3.01417229,6.06178787 4.99026785,5.11048681 L4.99026785,5.11048681 C6.96554684,4.15802515 8.02504436,2.37225625 7.35627483,1.12152167 L7.35627483,1.12152167 C6.96309713,0.386478147 6.05956419,0 4.97965246,0 L4.97965246,0 C4.22391839,0 3.38162807,0.189563856 2.56791765,0.581458113" id="Fill-27" fill="url(#radialGradient-42)" mask="url(#mask-41)"></path>
                </g>
                <g id="分组" transform="translate(27.769775, 6.872715)">
                    <mask id="mask-44" fill="white">
                        <use xlink:href="#path-43"></use>
                    </mask>
                    <g id="Clip-30"></g>
                    <path d="M0.489594204,0.345760604 C-0.388543468,1.13843089 -0.0534237908,3.03850228 1.23857117,4.58999217 L1.23857117,4.58999217 C2.53056612,6.14148206 4.2903323,6.75764519 5.16924571,5.96537788 L5.16924571,5.96537788 C6.04777125,5.17270759 5.71148796,3.27303919 4.42065662,1.7215493 L4.42065662,1.7215493 C3.50993786,0.629058628 2.36843647,0 1.46586298,0 L1.46586298,0 C1.08652613,0 0.749467102,0.111223691 0.489594204,0.345760604" id="Fill-29" fill="url(#radialGradient-45)" mask="url(#mask-44)"></path>
                </g>
                <g id="分组" transform="translate(16.344478, 8.265983)">
                    <mask id="mask-47" fill="white">
                        <use xlink:href="#path-46"></use>
                    </mask>
                    <g id="Clip-32"></g>
                    <path d="M1.87020142,0.764323894 C0.112129622,1.96713273 -0.518669477,4.16039185 0.462845756,5.66275557 L0.462845756,5.66275557 C1.44354442,7.1655365 3.66297737,7.40835119 5.42227401,6.20512515 L5.42227401,6.20512515 C7.18116238,5.00273352 7.81114491,2.80989161 6.83003796,1.30711068 L6.83003796,1.30711068 C6.26864717,0.447246296 5.3010136,0 4.24682378,0 L4.24682378,0 C3.45883526,0 2.62226092,0.249907212 1.87020142,0.764323894" id="Fill-31" fill="url(#radialGradient-48)" mask="url(#mask-47)"></path>
                </g>
            </g>
        </g>
    </g>
</svg>